<?xml version="1.0" encoding="utf-8"?>
<!-- Generator: Adobe Illustrator 24.3.0, SVG Export Plug-In . SVG Version: 6.00 Build 0)  -->
<svg version="1.1" id="Слой_1" xmlns="http://www.w3.org/2000/svg" xmlns:xlink="http://www.w3.org/1999/xlink" x="0px" y="0px"
	 viewBox="0 0 126.1 28" style="enable-background:new 0 0 126.1 28;" xml:space="preserve">
<style type="text/css">
	.st0{fill-rule:evenodd;clip-rule:evenodd;fill:#F6474F;}
	.st1{fill:#F6474F;}
	.st2{fill:#111111;}
	.st3{fill-rule:evenodd;clip-rule:evenodd;fill:#111111;}
	.st4{fill-rule:evenodd;clip-rule:evenodd;fill:#707070;}
</style>
<path class="st0" d="M6.7,0.4H0v27.1h3.3V14.2l6,13.3h4l-6-12.3c3.7-0.2,5.8-2.4,5.8-6.9V7.2C13.1,2.8,10.7,0.4,6.7,0.4z M3.3,12.2
	V3.7l3.1,0c2.4,0,3.4,1.1,3.4,3.9V8c0,3-1,4.3-3.4,4.3H3.3z"/>
<path class="st1" d="M17.5,0.4v18.8c0,4,0.9,5.4,3.3,5.4c2.4,0,3.3-1.4,3.3-5.4V0.4h3.3v18.8c0,5.9-2.1,8.7-6.6,8.7
	c-4.5,0-6.6-2.8-6.6-8.7V0.4H17.5z"/>
<path class="st1" d="M34.6,0c3.5,0,5.8,2.4,5.8,7.2v1.7h-3.3V7.3c0-2.8-0.6-4-2.5-4c-1.7,0-2.4,1.2-2.4,3.3c0,2.2,0.7,3.4,2.4,4.6
	l2.1,2.1c2.2,1.7,4,3.8,4,7.3c0,4.8-2.4,7.2-6.1,7.2s-6.1-2.6-6.1-7.2v-2h3.3v1.8c0,2.6,0.8,4.2,2.8,4.2c2,0,2.8-1.3,2.8-3.5
	c0-2.2-0.7-3.7-2.4-5l-2.3-2c-2.3-1.7-3.8-3.8-3.8-7.5C28.9,1.9,31.2,0,34.6,0z"/>
<path class="st1" d="M47.6,0c3.5,0,5.8,2.4,5.8,7.2v1.7h-3.3V7.3c0-2.8-0.6-4-2.5-4c-1.7,0-2.4,1.2-2.4,3.3c0,2.2,0.7,3.4,2.4,4.6
	l2.1,2.1c2.2,1.7,4.3,3.8,4.3,7.3c0,4.8-3.4,7.2-6.4,7.2c-3.7,0-6.1-2.6-6.1-7.2v-2h3.3v1.8c0,2.6,0.8,4.2,2.8,4.2
	c2,0,2.8-1.3,2.8-3.5c0-2.2-0.7-3.7-2.4-5l-2.3-2c-2.3-1.7-3.8-3.8-3.8-7.5C41.9,1.9,44.2,0,47.6,0z"/>
<path class="st2" d="M87.3,0c3.5,0,5.8,2.4,5.8,7.2v1.7h-3.3V7.3c0-2.8-0.6-4-2.5-4c-1.7,0-2.4,1.2-2.4,3.3c0,2.2,0.7,3.4,2.4,4.6
	l2.1,2.1c2.2,1.7,4,3.8,4,7.3c0,4.8-2.4,7.2-6.1,7.2c-3.7,0-6.1-2.6-6.1-7.2v-2h3.3v1.8c0,2.6,0.8,4.2,2.8,4.2c2,0,2.8-1.3,2.8-3.5
	c0-2.2-0.7-3.7-2.4-5l-2.3-2c-2.3-1.7-3.8-3.8-3.8-7.5C81.6,1.9,83.9,0,87.3,0z"/>
<path class="st2" d="M100.3,0c3.5,0,5.8,2.4,5.8,7.2v1.7h-3.3V7.3c0-2.8-0.6-4-2.5-4c-1.7,0-2.4,1.2-2.4,3.3c0,2.2,0.7,3.4,2.4,4.6
	l2.1,2.1c2.2,1.7,4.3,3.8,4.3,7.3c0,4.8-3.4,7.2-6.4,7.2c-3.7,0-6.1-2.6-6.1-7.2v-2h3.3v1.8c0,2.6,0.8,4.2,2.8,4.2
	c2,0,2.8-1.3,2.8-3.5c0-2.2-0.7-3.7-2.4-5l-2.3-2c-2.3-1.7-3.8-3.8-3.8-7.5C94.6,1.9,96.9,0,100.3,0z"/>
<path class="st3" d="M62.2,0.4h-6.6v27.1h3.3V17.1h3.3c4,0,6.3-2.7,6.3-7.6v-2C68.5,2.9,66.2,0.4,62.2,0.4z M58.9,13.8V3.7h3
	c2.4,0,3.3,1.2,3.3,4.3v1.2c0,3.3-0.9,4.6-3.3,4.6H58.9z"/>
<path class="st3" d="M76.5,0.4h-5l-5,27.1h3.3l1.3-6.7h5.7l1.3,6.7h3.3L76.5,0.4z M74,3.3l2.5,14.3l-4.7,0L74,3.3z"/>
<polygon class="st4" points="111.5,13.9 111.5,3.8 111.5,0.4 108.2,0.4 108.2,27.6 111.5,27.6 111.5,21.8 111.5,17.2 "/>
<path class="st4" d="M119.8,0.4h-6.6v8.4v10.4v8.4h6.8c3.9-0.1,6.2-2.7,6.2-7.6v-0.8V8.8V7.7C126.1,2.9,123.8,0.4,119.8,0.4z
	 M122.7,19.2v0.4c0,3.3-0.9,4.6-3.3,4.6h-3v-5.1V8.8V3.8h3c2.4,0,3.3,1.2,3.3,4.3v0.8V19.2z"/>
</svg>
