<?xml version="1.0" encoding="UTF-8" standalone="no"?>
<!DOCTYPE svg PUBLIC "-//W3C//DTD SVG 1.1//EN" "http://www.w3.org/Graphics/SVG/1.1/DTD/svg11.dtd">
<svg width="100%" height="100%" viewBox="0 0 24 24" version="1.1" xmlns="http://www.w3.org/2000/svg" xmlns:xlink="http://www.w3.org/1999/xlink" xml:space="preserve" xmlns:serif="http://www.serif.com/" style="fill-rule:evenodd;clip-rule:evenodd;stroke-linejoin:round;stroke-miterlimit:2;">
    <g transform="matrix(1.41237,0,0,1.41237,-5.6897,-5.08668)">
        <path d="M13,18.293L16.146,15.146C16.342,14.951 16.658,14.951 16.854,15.146C17.049,15.342 17.049,15.658 16.854,15.854L12.854,19.854C12.658,20.049 12.342,20.049 12.146,19.854L8.146,15.854C7.951,15.658 7.951,15.342 8.146,15.146C8.342,14.951 8.658,14.951 8.854,15.146L12,18.293L12,7.5C12,7.224 12.224,7 12.5,7C12.776,7 13,7.224 13,7.5L13,18.293ZM4.5,5C4.224,5 4,4.776 4,4.5C4,4.224 4.224,4 4.5,4L20.5,4C20.776,4 21,4.224 21,4.5C21,4.776 20.776,5 20.5,5L4.5,5Z" style="fill-rule:nonzero;"/>
    </g>
</svg>
