<svg width="64" height="64" viewBox="0 0 64 64" fill="none" xmlns="http://www.w3.org/2000/svg">
<path d="M0 8C0 3.58172 3.58172 0 8 0H56C60.4183 0 64 3.58172 64 8V56C64 60.4183 60.4183 64 56 64H8C3.58172 64 0 60.4183 0 56V8Z" fill="#FF3000"/>
<path d="M48.2063 53C45.3495 53 43.3813 51.434 43.3813 46.5831V45.5397H46.5557V46.5837C46.5557 49.1627 47.2543 49.8686 48.2063 49.8686C49.1584 49.8686 49.8256 49.1627 49.8256 47.9652C49.8256 46.4605 49.6034 45.632 47.381 44.066C44.7777 42.2548 43.5715 40.3204 43.5715 37.8336C43.5715 34.6713 45.2855 32.7678 48.2063 32.7678C50.2379 32.7678 52.9366 33.382 52.9366 38.5395V39.7371H49.7622V38.5395C49.7622 36.5134 49.0956 35.8379 48.2063 35.8379C47.2543 35.8379 46.7459 36.5134 46.7459 37.7104C46.7459 38.9383 47.0315 39.9514 49.2538 41.6096C52.0159 43.6666 53 45.2939 53 47.9646C53 50.6353 51.7297 53 48.2063 53ZM37.3808 53C34.5239 53 32.5557 51.6798 32.5557 46.5831V45.5397H35.7302V46.5837C35.7302 49.1627 36.4287 49.8686 37.3808 49.8686C38.3329 49.8686 39 49.1627 39 47.9652C39 46.4605 38.7778 45.632 36.5555 44.066C33.9522 42.2548 32.7459 40.3204 32.7459 37.8336C32.7459 34.6713 34.4599 32.7678 37.3808 32.7678C39.4124 32.7678 42.111 33.382 42.111 38.5395V39.7371H38.9366V38.5395C38.9366 36.5134 38.2701 35.8379 37.3808 35.8379C36.4287 35.8379 35.9204 36.5134 35.9204 37.7104C35.9204 38.9383 36.2059 39.9514 38.4283 41.6096C41.1904 43.6666 42.1744 45.2939 42.1744 47.9646C42.1744 50.6353 40.9048 53 37.3808 53ZM48.2063 31.2322C45.3495 31.2322 43.3813 29.6662 43.3813 24.8153V23.7719H46.5557V24.8159C46.5557 27.3949 47.2543 28.1008 48.2063 28.1008C49.1584 28.1008 49.8256 27.3949 49.8256 26.1974C49.8256 24.6927 49.6034 23.8641 47.381 22.2982C44.7777 20.487 43.5715 18.5526 43.5715 16.0658C43.5715 12.9035 45.2855 11 48.2063 11C50.2379 11 52.9366 11.6142 52.9366 16.7717V17.9692H49.7622V16.7717C49.7622 14.7456 49.0956 14.0701 48.2063 14.0701C47.2543 14.0701 46.7459 14.7456 46.7459 15.9426C46.7459 17.1705 47.0315 18.1835 49.2538 19.8418C52.0159 21.8988 53 23.5261 53 26.1968C53 28.8675 51.7297 31.2322 48.2063 31.2322ZM37.3808 31.2322C34.5239 31.2322 32.5557 29.912 32.5557 24.8153V23.7719H35.7302V24.8159C35.7302 27.3949 36.4287 28.1008 37.3808 28.1008C38.3329 28.1008 39 27.3949 39 26.1974C39 24.6927 38.7778 23.8641 36.5555 22.2982C33.9522 20.487 32.7459 18.5526 32.7459 16.0658C32.7459 12.9035 34.4599 11 37.3808 11C39.4124 11 42.111 11.6142 42.111 16.7717V17.9692H38.9366V16.7717C38.9366 14.7456 38.2701 14.0701 37.3808 14.0701C36.4287 14.0701 35.9204 14.7456 35.9204 15.9426C35.9204 17.1705 36.2059 18.1835 38.4283 19.8418C41.1904 21.8988 42.1744 23.5261 42.1744 26.1968C42.1744 28.8675 40.9048 31.2322 37.3808 31.2322ZM14.175 45.5397H14.8102C16.2072 45.5397 16.9051 44.8641 16.9051 41.7328V39.9519C16.9051 36.8205 16.2066 36.145 14.8102 36.145H14.175V45.5397ZM14.175 52.6929H11.0006V33.0744H14.8102C18.9373 33.0744 20.0802 35.3462 20.0802 39.6448V42.0393C20.0802 46.3373 18.9373 48.6098 14.8102 48.6098H14.175V52.6929ZM14.8096 20.7018H14.1744V14.3772H14.8096C16.238 14.3772 16.9045 14.8379 16.9045 16.9866V18.0919C16.9051 20.2411 16.2386 20.7018 14.8096 20.7018ZM20.6827 30.9256L18.2382 22.7589C19.413 21.8071 20.0796 20.2411 20.0796 18.3073V16.7723C20.0796 13.1802 18.4289 11.3071 14.8096 11.3071H11V30.9256H14.1744V23.7719H14.5874C14.7462 23.7719 14.9683 23.7719 15.3173 23.741L17.2221 30.9251H20.6827V30.9256ZM24.3015 45.5397L25.9207 36.145H26.1749L27.7935 45.5397H24.3015ZM29.0003 52.6929H32.1748L28.6508 33.0744H23.4448L19.8894 52.6929H23.0638L23.7937 48.6098H28.3018L29.0003 52.6929ZM26.365 31.2322C22.4601 31.2322 21.7302 28.377 21.7302 24.9076V11.3071H25.032V25.1843C25.032 27.6098 25.4763 28.1621 26.365 28.1621C27.2537 28.1621 27.6981 27.6098 27.6981 25.1843V11.3071H30.9999V24.9081C30.9999 28.377 30.27 31.2322 26.365 31.2322Z" fill="white"/>
</svg>
