<svg width="114" height="28" viewBox="0 0 114 28" fill="none" xmlns="http://www.w3.org/2000/svg">
<path d="M107.641 28C103.851 28 101.24 25.8331 101.24 19.1199V17.6753H105.451V19.1199C105.451 22.6889 106.378 23.6662 107.641 23.6662C108.904 23.6662 109.789 22.6889 109.789 21.0319C109.789 18.9499 109.494 17.8027 106.546 15.6358C103.093 13.129 101.492 10.4522 101.492 7.01062C101.492 2.63429 103.767 0 107.641 0C110.336 0 113.916 0.849772 113.916 7.98786V9.64492H109.704V7.98786C109.704 5.18361 108.82 4.24886 107.641 4.24886C106.378 4.24886 105.704 5.18361 105.704 6.84067C105.704 8.54021 106.083 9.94234 109.031 12.2367C112.694 15.0835 114 17.3354 114 21.0319C114 24.7284 112.315 28 107.641 28ZM93.1962 28C89.406 28 86.795 26.173 86.795 19.1199V17.6753H91.0063V19.1199C91.0063 22.6889 91.9328 23.6662 93.1962 23.6662C94.4595 23.6662 95.3439 22.6889 95.3439 21.0319C95.3439 18.9499 95.0491 17.8027 92.1012 15.6358C88.6479 13.129 87.0477 10.4522 87.0477 7.01062C87.0477 2.63429 89.3218 0 93.1962 0C95.8914 0 99.471 0.849772 99.471 7.98786V9.64492H95.2597V7.98786C95.2597 5.18361 94.3753 4.24886 93.1962 4.24886C91.9328 4.24886 91.259 5.18361 91.259 6.84067C91.259 8.54021 91.638 9.94234 94.5859 12.2367C98.2497 15.0835 99.5552 17.3354 99.5552 21.0319C99.5552 24.7284 97.8707 28 93.1962 28ZM49.6092 28C45.819 28 43.208 25.8331 43.208 19.1199V17.6753H47.4193V19.1199C47.4193 22.6889 48.3458 23.6662 49.6092 23.6662C50.8726 23.6662 51.7569 22.6889 51.7569 21.0319C51.7569 18.9499 51.4621 17.8027 48.5142 15.6358C45.061 13.129 43.4607 10.4522 43.4607 7.01062C43.4607 2.63429 45.7348 0 49.6092 0C52.3044 0 55.884 0.849772 55.884 7.98786V9.64492H51.6727V7.98786C51.6727 5.18361 50.7883 4.24886 49.6092 4.24886C48.3458 4.24886 47.672 5.18361 47.672 6.84067C47.672 8.54021 48.051 9.94234 50.9989 12.2367C54.6627 15.0835 55.9682 17.3354 55.9682 21.0319C55.9682 24.7284 54.2837 28 49.6092 28ZM35.1644 28C31.3742 28 28.7632 26.173 28.7632 19.1199V17.6753H32.9745V19.1199C32.9745 22.6889 33.901 23.6662 35.1644 23.6662C36.4278 23.6662 37.3122 22.6889 37.3122 21.0319C37.3122 18.9499 37.0174 17.8027 34.0695 15.6358C30.6162 13.129 29.0159 10.4522 29.0159 7.01062C29.0159 2.63429 31.29 0 35.1644 0C37.8596 0 41.4392 0.849772 41.4392 7.98786V9.64492H37.2279V7.98786C37.2279 5.18361 36.3436 4.24886 35.1644 4.24886C33.901 4.24886 33.2272 5.18361 33.2272 6.84067C33.2272 8.54021 33.6062 9.94234 36.5541 12.2367C40.218 15.0835 41.5235 17.3354 41.5235 21.0319C41.5235 24.7284 39.8389 28 35.1644 28ZM62.4115 17.6753H63.2538C65.1068 17.6753 66.0332 16.7405 66.0332 12.4067V9.94234C66.0332 5.6085 65.1068 4.67375 63.2538 4.67375H62.4115V17.6753ZM62.4115 27.5751H58.2002V0.424886H63.2538C68.7285 0.424886 70.2446 3.56904 70.2446 9.51745V12.8316C70.2446 18.78 68.7285 21.9241 63.2538 21.9241H62.4115V27.5751ZM5.05356 13.4264H4.2113V4.67375H5.05356C6.94865 4.67375 7.83303 5.31108 7.83303 8.28528V9.81487C7.83303 12.7891 6.94865 13.4264 5.05356 13.4264ZM12.8445 27.5751L9.60177 16.2731C11.16 14.956 12.0443 12.7891 12.0443 10.1123V7.98786C12.0443 3.01669 9.85445 0.424886 5.05356 0.424886H0V27.5751H4.2113V17.6753H4.75877C5.08214 17.6774 5.40541 17.6632 5.72737 17.6328L8.25416 27.5751H12.8445ZM75.9298 17.6753L78.0776 4.67375H78.4145L80.5622 17.6753H75.9298ZM82.1625 27.5751H86.3738L81.6993 0.424886H74.7928L70.0761 27.5751H74.2874L75.256 21.9241H81.2361L82.1625 27.5751ZM20.4669 28C15.287 28 14.3184 24.0486 14.3184 19.2473V0.424886H18.6982V19.6297C18.6982 22.9863 19.2878 23.7511 20.4669 23.7511C21.6461 23.7511 22.2357 22.9863 22.2357 19.6297V0.424886H26.6154V19.2473C26.6154 24.0486 25.6468 28 20.4669 28Z" fill="#FFFFFF"/>
</svg>
