<?xml version="1.0" encoding="utf-8"?>
<!-- Generator: Adobe Illustrator 24.3.0, SVG Export Plug-In . SVG Version: 6.00 Build 0)  -->
<svg version="1.1" id="Слой_1" xmlns="http://www.w3.org/2000/svg" xmlns:xlink="http://www.w3.org/1999/xlink" x="0px" y="0px"
	 viewBox="0 0 94.9 64" style="enable-background:new 0 0 94.9 64;" xml:space="preserve">
<style type="text/css">
	.st0{fill:#FF3000;}
	.st1{fill:#FFFFFF;}
	.st2{fill:#FCFAFA;}
</style>
<path class="st0" d="M0,8c0-4.4,5.3-8,11.9-8H83c6.6,0,11.9,3.6,11.9,8v48c0,4.4-5.3,8-11.9,8H11.9C5.3,64,0,60.4,0,56V8z"/>
<path class="st1" d="M48.2,53c-2.9,0-4.8-1.6-4.8-6.4v-1h3.2v1c0,2.6,0.7,3.3,1.7,3.3c1,0,1.6-0.7,1.6-1.9c0-1.5-0.2-2.3-2.4-3.9
	c-2.6-1.8-3.8-3.7-3.8-6.2c0-3.2,1.7-5.1,4.6-5.1c2,0,4.7,0.6,4.7,5.8v1.2h-3.2v-1.2c0-2-0.7-2.7-1.6-2.7c-1,0-1.5,0.7-1.5,1.9
	c0,1.2,0.3,2.2,2.5,3.9C52,43.7,53,45.3,53,48S51.7,53,48.2,53z M37.4,53c-2.9,0-4.8-1.3-4.8-6.4v-1h3.2v1c0,2.6,0.7,3.3,1.7,3.3
	c1,0,1.6-0.7,1.6-1.9c0-1.5-0.2-2.3-2.4-3.9c-2.6-1.8-3.8-3.7-3.8-6.2c0-3.2,1.7-5.1,4.6-5.1c2,0,4.7,0.6,4.7,5.8v1.2h-3.2v-1.2
	c0-2-0.7-2.7-1.6-2.7c-1,0-1.5,0.7-1.5,1.9c0,1.2,0.3,2.2,2.5,3.9c2.8,2.1,3.7,3.7,3.7,6.4S40.9,53,37.4,53z M48.2,31.2
	c-2.9,0-4.8-1.6-4.8-6.4v-1h3.2v1c0,2.6,0.7,3.3,1.7,3.3c1,0,1.6-0.7,1.6-1.9c0-1.5-0.2-2.3-2.4-3.9c-2.6-1.8-3.8-3.7-3.8-6.2
	c0-3.2,1.7-5.1,4.6-5.1c2,0,4.7,0.6,4.7,5.8V18h-3.2v-1.2c0-2-0.7-2.7-1.6-2.7c-1,0-1.5,0.7-1.5,1.9c0,1.2,0.3,2.2,2.5,3.9
	c2.8,2.1,3.7,3.7,3.7,6.4S51.7,31.2,48.2,31.2z M37.4,31.2c-2.9,0-4.8-1.3-4.8-6.4v-1h3.2v1c0,2.6,0.7,3.3,1.7,3.3
	c1,0,1.6-0.7,1.6-1.9c0-1.5-0.2-2.3-2.4-3.9c-2.6-1.8-3.8-3.7-3.8-6.2c0-3.2,1.7-5.1,4.6-5.1c2,0,4.7,0.6,4.7,5.8V18h-3.2v-1.2
	c0-2-0.7-2.7-1.6-2.7c-1,0-1.5,0.7-1.5,1.9c0,1.2,0.3,2.2,2.5,3.9c2.8,2.1,3.7,3.7,3.7,6.4S40.9,31.2,37.4,31.2z M14.2,45.5h0.6
	c1.4,0,2.1-0.7,2.1-3.8V40c0-3.1-0.7-3.8-2.1-3.8h-0.6V45.5z M14.2,52.7H11V33.1h3.8c4.1,0,5.3,2.3,5.3,6.6V42
	c0,4.3-1.1,6.6-5.3,6.6h-0.6V52.7z M14.8,20.7h-0.6v-6.3h0.6c1.4,0,2.1,0.5,2.1,2.6v1.1C16.9,20.2,16.2,20.7,14.8,20.7z M20.7,30.9
	l-2.4-8.2c1.2-1,1.8-2.5,1.8-4.5v-1.5c0-3.6-1.7-5.5-5.3-5.5H11v19.6h3.2v-7.2h0.4c0.2,0,0.4,0,0.7,0l1.9,7.2L20.7,30.9L20.7,30.9z
	 M24.3,45.5l1.6-9.4h0.3l1.6,9.4H24.3z M29,52.7h3.2l-3.5-19.6h-5.2l-3.6,19.6h3.2l0.7-4.1h4.5L29,52.7z M26.4,31.2
	c-3.9,0-4.6-2.9-4.6-6.3V11.3H25v13.9c0,2.4,0.4,3,1.3,3s1.3-0.6,1.3-3V11.3H31v13.6C31,28.4,30.3,31.2,26.4,31.2z"/>
<polygon class="st2" points="62.2,44.4 62.2,36.1 62.2,17.6 62.2,11.4 56,11.4 56,52.6 62.2,52.6 "/>
<path class="st2" d="M73.1,11.4h-7.8v13.3v11.6v1.9v14.5h7.6c8.6,0,11-4.7,11-13.5v-1v-1.9V24.7C83.7,16,81.3,11.4,73.1,11.4z
	 M77.6,36.6c0,6.3-1.6,7.6-4.7,7.6h-1.4v-6.1v-1.9V24.7h0v-7h1.4c3.1,0,4.6,1.3,4.7,7h0v11.6V36.6z"/>
</svg>
